<?xml version="1.0" encoding="UTF-8" standalone="no"?>
<!-- Created with Inkscape (http://www.inkscape.org/) -->

<svg
   xmlns:dc="http://purl.org/dc/elements/1.1/"
   xmlns:cc="http://creativecommons.org/ns#"
   xmlns:rdf="http://www.w3.org/1999/02/22-rdf-syntax-ns#"
   xmlns:svg="http://www.w3.org/2000/svg"
   xmlns="http://www.w3.org/2000/svg"
   xmlns:sodipodi="http://sodipodi.sourceforge.net/DTD/sodipodi-0.dtd"
   xmlns:inkscape="http://www.inkscape.org/namespaces/inkscape"
   width="400"
   height="300"
   viewBox="0 0 105.83333 79.375002"
   version="1.1"
   id="svg8"
   inkscape:version="0.92.5 (2060ec1f9f, 2020-04-08)"
   sodipodi:docname="gameover.svg">
  <defs
     id="defs2" />
  <sodipodi:namedview
     id="base"
     pagecolor="#ffffff"
     bordercolor="#666666"
     borderopacity="1.0"
     inkscape:pageopacity="0.0"
     inkscape:pageshadow="2"
     inkscape:zoom="1.4"
     inkscape:cx="110.79056"
     inkscape:cy="176.49315"
     inkscape:document-units="mm"
     inkscape:current-layer="layer1"
     showgrid="false"
     units="px"
     inkscape:window-width="1846"
     inkscape:window-height="1056"
     inkscape:window-x="37"
     inkscape:window-y="0"
     inkscape:window-maximized="1" />
  <metadata
     id="metadata5">
    <rdf:RDF>
      <cc:Work
         rdf:about="">
        <dc:format>image/svg+xml</dc:format>
        <dc:type
           rdf:resource="http://purl.org/dc/dcmitype/StillImage" />
        <dc:title></dc:title>
      </cc:Work>
    </rdf:RDF>
  </metadata>
  <g
     inkscape:label="Layer 1"
     inkscape:groupmode="layer"
     id="layer1"
     transform="translate(0,-217.62498)">
    <g
       id="layer1-9"
       inkscape:label="Layer 1"
       transform="matrix(0.20339956,0,0,0.19487553,10.490086,245.88086)"
       style="stroke-width:1.32895052">
      <path
         id="text1335"
         d="m 415.541,196.38893 -1.24296,5.96623 c -7.78965,0 -19.39064,0 -34.80301,0 0.16535,0 -0.0832,-0.82864 -0.74578,-2.48593 -0.82902,0.82865 -2.23771,1.49156 -4.22608,1.98875 -0.33183,-0.16573 -0.66328,-0.66292 -0.99437,-1.49156 -0.1661,-0.99437 -0.66328,-1.49155 -1.49156,-1.49156 l -2.23733,3.4803 c -2.15484,0.82865 -3.6464,-0.33145 -4.47468,-3.4803 -0.16609,0.16573 -1.16046,1.32583 -2.98311,3.4803 -1.16046,0.33146 -2.32056,-0.33145 -3.4803,-1.98874 -0.33182,0.66292 -0.829,0.99437 -1.49156,0.99437 -0.33181,0 -0.829,-0.0829 -1.49156,-0.24859 -0.66327,-0.33146 -1.16045,-0.49719 -1.49156,-0.49719 -0.82899,0 -1.32618,0.58005 -1.49155,1.74015 h -3.4803 c 0.16538,0 -0.0832,-0.41432 -0.74578,-1.24296 -0.16608,0.49719 -1.7405,0.91151 -4.72327,1.24296 -3.4e-4,-0.33145 -0.24893,-0.9115 -0.74578,-1.74015 -1.32617,0.49719 -3.97782,-0.16572 -7.95497,-1.98874 -0.49752,0.66292 -1.07757,1.32583 -1.74015,1.98874 -0.49752,0.66292 -1.2433,0.82865 -2.23734,0.49719 -0.33179,-0.66291 -0.74611,-1.32583 -1.24296,-1.98875 -0.33179,-0.66291 -0.91184,-0.99436 -1.74015,-0.99437 -0.16606,0.82865 -0.82897,1.98875 -1.98875,3.4803 -2.15479,-1.49155 -3.89494,-1.24296 -5.22045,0.74578 -2.15479,0.49719 -3.9778,-0.74577 -5.46904,-3.72889 -0.82896,0.82865 -1.98906,0.99437 -3.48031,0.49718 -1.98905,-0.66291 -3.06628,-0.99436 -3.2317,-0.99437 -0.82895,1e-5 -1.57473,0.41433 -2.23734,1.24297 -0.82895,0.33146 -1.98905,0 -3.4803,-0.99437 -1.32613,-0.99437 -2.3205,-1.49156 -2.98312,-1.49156 -0.66321,0 -1.32612,0.58005 -1.98874,1.74015 -0.49748,-0.49718 -1.07753,-0.74578 -1.74015,-0.74578 -0.66321,0 -1.74044,0.41433 -3.23171,1.24296 -1.32612,0.82865 -2.32049,1.24297 -2.98311,1.24297 -0.99466,0 -1.82331,-0.49718 -2.48593,-1.49156 -0.82893,10e-6 -1.65757,0.58006 -2.48593,1.74015 -0.6632,1.1601 -1.32611,1.74015 -1.98875,1.74015 -0.33174,-0.16573 -0.74606,-0.33145 -1.24296,-0.49718 -0.49747,-0.99437 -1.24325,-1.49156 -2.23734,-1.49156 -0.33173,0 -0.91178,0.16573 -1.74015,0.49719 -0.82892,0.16573 -1.40897,0.24859 -1.74015,0.24859 -1.3261,0 -2.23761,-0.82864 -2.73452,-2.48593 -1.82329,1.32583 -2.81766,1.98874 -2.98312,1.98874 l -1.98874,-2.98311 c -0.166,0.16573 -1.16037,1.74015 -2.98312,4.72326 h -4.22608 c -1.65754,-2.3202 -2.65191,-3.48029 -2.98311,-3.4803 -0.49744,10e-6 -1.07749,0.33146 -1.74015,0.99437 l -2.48593,-4.72326 c -0.8289,0.49719 -1.98899,1.32583 -3.4803,2.48593 -0.33171,0 -0.66316,-0.33145 -0.99437,-0.99437 -0.16598,-0.66291 -0.49744,-0.82864 -0.99438,-0.49719 l -4.72326,3.72889 c -0.66316,-1.32582 -1.4918,-1.49155 -2.48593,-0.49718 -0.82888,1.1601 -1.82325,1.57442 -2.98312,1.24296 -0.33169,-0.99437 -1.16033,-2.0716 -2.48593,-3.23171 -2.81761,2.15448 -4.39203,3.23171 -4.72326,3.23171 -0.33169,0 -0.74601,-0.0829 -1.24297,-0.24859 -0.66314,-1.49155 -1.49178,-2.23733 -2.48593,-2.23734 -0.33168,1e-5 -0.91173,0.16574 -1.74015,0.49719 -0.82886,0.16573 -1.49178,0.2486 -1.98874,0.24859 -0.82886,10e-6 -1.57464,-0.49718 -2.23734,-1.49156 -0.82886,0.33147 -1.74036,0.49719 -2.73452,0.49719 -1.16031,0 -2.07182,-0.16572 -2.73452,-0.49719 l -0.99437,-1.24296 c -0.66313,1.32583 -2.23755,2.98312 -4.72327,4.97186 -1.49176,-0.16573 -2.90046,-0.74578 -4.22608,-1.74015 -0.82885,1.32583 -2.23754,1.82301 -4.22608,1.49156 -2.48613,-0.33146 -4.14341,-0.2486 -4.97186,0.24859 -0.66311,-1.65728 -1.65748,-2.48593 -2.98311,-2.48593 -0.49738,0 -1.24316,0.16573 -2.23734,0.49718 -0.99456,0.16574 -1.74034,0.2486 -2.23734,0.2486 -1.16028,0 -2.07179,-0.66291 -2.73452,-1.98875 -0.6631,0.82865 -1.49174,1.24297 -2.48593,1.24297 -0.49737,0 -1.24314,-0.16573 -2.23733,-0.49719 -0.99455,-0.33145 -1.65747,-0.49718 -1.98875,-0.49718 -1.16027,0 -1.90605,0.74578 -2.23733,2.23733 -0.49737,0.33146 -0.99455,0.49719 -1.49156,0.49719 -0.49736,0 -1.326,-0.41432 -2.48593,-1.24297 -0.99454,-0.82863 -1.74032,-1.24296 -2.23734,-1.24296 -0.82881,0 -1.57459,0.49719 -2.23733,1.49156 -0.49736,-0.16573 -0.99454,-0.24859 -1.49156,-0.2486 -0.66308,1e-5 -1.65745,0.2486 -2.98312,0.74578 -1.16026,0.49719 -1.9889,0.74578 -2.48593,0.74578 -0.49734,0 -0.99453,-0.0829 -1.49155,-0.24859 -0.49735,-0.16573 -1.32599,0.24859 -2.48593,1.24296 -1.32599,-0.49718 -2.56895,-0.9115 -3.7289,-1.24296 -1.49171,-0.33146 -2.65181,-0.0829 -3.4803,0.74578 -0.66306,-1.32583 -1.82316,-1.49156 -3.4803,-0.49719 -1.16024,1.1601 -2.6518,1.74015 -4.47467,1.74015 -0.82879,0 -2.15461,-0.16573 -3.97749,-0.49718 -1.65742,-0.33146 -2.90039,-0.49719 -3.72889,-0.49719 -1.16024,0 -2.15461,0.16573 -2.98312,0.49719 -0.9945,-0.16573 -1.90601,-0.74578 -2.73452,-1.74015 -1.32596,-1.82301 -1.98887,-2.73452 -1.98874,-2.73453 -0.82877,1.16011 -2.48606,1.74016 -4.97186,1.74015 -2.48605,-0.16572 -4.06047,0.0829 -4.72327,0.74578 -0.66303,0.16573 -1.57454,1e-5 -2.73452,-0.49718 -1.16021,-0.49718 -1.98886,-0.74578 -2.48593,-0.74578 -0.82875,0 -1.49167,0.41432 -1.98874,1.24296 -0.66303,1e-5 -1.49167,-0.33145 -2.48593,-0.99437 -0.99448,-0.82864 -1.82312,-1.24296 -2.48593,-1.24296 -0.49729,0 -0.99448,0.16573 -1.49156,0.49718 -4.30904,-0.33145 -6.46351,-0.49718 -6.46342,-0.49718 -2.32029,0.33146 -4.14331,1.49156 -5.46904,3.4803 -0.49728,-0.66291 -1.077329,-0.99437 -1.740149,-0.99437 -0.66301,0 -1.49165,0.24859 -2.48593,0.74578 -0.99446,0.49718 -1.74024,0.74578 -2.23734,0.74577 -0.49727,1e-5 -0.99445,-0.16572 -1.49156,-0.49718 -0.66299,0.82864 -2.32028,1.24296 -4.97186,1.24296 -0.33153,-1.1601 -0.99444,-1.74015 -1.98874,-1.74015 -0.1658,0 -0.99445,0.16573 -2.48593,0.49719 -0.99444,0.33146 -1.82309,0.33146 -2.48593,0 -0.99444,0.82864 -2.65172,1.07723 -4.97186,0.74578 -0.33152,-0.82864 -0.74584,-1.74015 -1.24296,-2.73453 -0.33152,-0.99436 -0.82871,-1.49155 -1.49156,-1.49155 -0.49725,0 -0.99443,0.16573 -1.49156,0.49718 -0.33152,-1.65728 -1.49161,-2.48592 -3.4803,-2.48593 -2.65171,-0.16572 -4.22613,-0.33145 -4.72326,-0.49718 -0.33151,0.16573 -1.16016,0.74578 -2.48593,1.74015 -1.32588,0.99437 -2.40312,1.49156 -3.23171,1.49156 -0.49723,0 -1.07728,-0.24859 -1.74015,-0.74578 -1.32588,1.98874 -2.48598,2.98311 -3.4803,2.98311 -0.66296,0 -1.24301,-0.41432 -1.74015,-1.24296 -0.82869,-0.33146 -1.90592,0.24859 -3.23171,1.74015 -1.16014,1.32583 -2.32024,1.74015 -3.4803,1.24296 -0.49722,-0.66291 -1.16014,-0.9115 -1.98875,-0.74578 -0.49721,0.49719 -1.24299,0.74578 -2.23733,0.74578 -1.65732,0 -2.48596,0 -2.48593,0 0.1657,-0.99437 -0.24862,-2.15447 -1.24297,-3.4803 -0.82867,0.16573 -1.9059,0.82865 -3.23171,1.98875 -1.32585,0.99437 -2.40308,1.49155 -3.2317,1.49155 l -1.74015,-3.4803 c -0.49721,0.49719 -1.16012,0.49719 -1.98875,0 -0.82866,-0.49718 -1.57443,-0.58004 -2.23733,-0.24859 -1.6573,1.65729 -2.8174,2.48593 -3.48031,2.48593 -0.49719,0 -0.99438,-0.24859 -1.49155,-0.74578 -0.4972,-1.32583 -1.9058904,-1.32583 -4.2260804,0 -0.82865,0.99437 -1.82302,1.40869 -2.983124,1.24296 -1.1601,-1.65728 -1.7401496,-4.64039 -1.7401496,-8.94934 0.4971896,1.16011 1.0772396,2.40307 1.7401496,3.72889 0.662914,1.16011 1.657284,1.74016 2.983124,1.74015 0.49718,-0.82863 0.74577,-1.90587 0.74578,-3.23171 -10e-6,-0.49717 -0.08287,-1.32582 -0.2486,-2.48592 -0.16573,-1.16009 -0.2486,-1.98874 -0.24859,-2.48593 -10e-6,-1.49155 0.49718,-2.73451 1.49156,-3.7289 -10e-6,1.98876 0.82863,4.72328 2.4859304,8.20357 0.6629,-0.66291 1.07722,-1.90587 1.24296,-3.7289 0.33145,-1.823 0.9115,-2.9831 1.74015,-3.4803 0.16572,0.82866 0.33145,1.74017 0.49719,2.73453 0.33144,0.99438 0.99436,1.49156 1.98874,1.49155 0.49717,-0.49717 0.91149,-1.49154 1.24297,-2.98311 0.33144,-1.49154 1.07722,-2.48591 2.23733,-2.98312 -2e-5,-1.32581 0.41431,-3.06596 1.24297,-5.22045 -0.82866,3.31459 -0.7458,5.63479 0.24859,6.9606 1.65727,-1.49154 2.65164,-4.22606 2.98312,-8.20356 l 0.99437,-0.74578 c -0.33148,2.81741 0.08284,7.04348 1.24296,12.67824 1.16008,0.16574 1.98872,-0.49718 2.48593,-1.98875 -3e-5,-2.15445 0.33143,-5.13756 0.99437,-8.94934 -2e-5,1.49158 0.82862,3.48032 2.48593,5.96623 l 0.74578,-2.23734 0.49719,0.49719 c 1.32579,-0.82863 2.40303,-3.81174 3.23171,-8.94935 0.33142,1.32586 0.91147,3.3146 1.74015,5.96623 0.66287,-0.33143 0.99433,-0.99435 0.99437,-1.98874 -4e-5,-0.99435 -4e-5,-1.5744 0,-1.74015 0.16569,-0.1657 0.74574,-1.74012 1.74015,-4.72327 1.16006,0.82868 1.65724,2.90028 1.49156,6.21483 -0.3315,0.82866 -0.16577,1.40871 0.49718,1.74015 0.66287,0.33148 1.24292,0.66293 1.74015,0.99437 l 0.74578,-0.99437 c 0.49714,0.33148 0.66287,0.99439 0.49719,1.98874 -0.16578,0.82866 -5e-5,1.40871 0.49718,1.74015 1.65724,-2.81736 2.73448,-6.62912 3.23171,-11.43527 0.16568,-0.49716 0.49714,-1.16007 0.99437,-1.98875 h 0.2486 c 0.16568,0.9944 -5e-5,2.32023 -0.49719,3.97749 -0.49723,1.65731 -0.74583,2.81741 -0.74578,3.4803 -5e-5,0.9944 0.33141,1.9059 0.99437,2.73452 0.8286,-0.49716 1.49151,-1.65726 1.98875,-3.4803 0.66286,-1.82299 1.24291,-2.90022 1.74015,-3.23171 -6e-5,3e-5 -0.24865,1.49159 -0.74578,4.47468 -0.16578,1.98876 -0.08292,3.56318 0.24859,4.72326 1.65723,-0.66289 2.73447,-2.32018 3.23171,-4.97186 0.49713,-2.65163 1.16004,-4.39178 1.98874,-5.22045 -0.66297,1.98877 -0.99443,5.13761 -0.99437,9.44653 0.99432,-0.33143 1.98869,-1.24294 2.98312,-2.73452 -0.16579,-0.82862 0.24853,-1.90585 1.24296,-3.23171 0.16567,1.16013 0.74572,2.81741 1.74015,4.97186 1.16004,0.16575 1.98868,-0.33143 2.48593,-1.49156 0.99431,-1.82299 1.49149,-2.81736 1.49156,-2.98311 0.16566,-0.1657 0.24853,-0.4143 0.24859,-0.74578 -6e-5,-0.49716 -0.33152,-1.07721 -0.99437,-1.74015 -0.49725,-0.82862 -0.74584,-1.40866 -0.74578,-1.74015 -6e-5,-0.49716 0.49712,-0.99434 1.49156,-1.49156 0.49712,0.16576 0.74571,0.66295 0.74578,1.49156 -7e-5,0.82867 0.16566,1.32586 0.49718,1.49156 -0.99443,1.16012 -0.99443,2.15449 0,2.98311 l 0.2486,0.49719 c 0.49711,-1.16008 0.82857,-3.06595 0.99437,-5.71764 0.33139,-2.65163 0.74571,-4.5575 1.24296,-5.71764 0.66285,4e-5 0.9943,0.49722 0.99438,1.49156 -8e-5,0.99441 0.08279,1.65732 0.24859,1.98874 -0.1658,4.14325 0.08279,10.19234 0.74578,18.14729 0.66284,-0.6629 1.24289,-2.23732 1.74015,-4.72327 -8e-5,-3.14882 0.16565,-7.62349 0.49718,-13.42402 1.16003,0.99441 1.74008,2.48596 1.74015,4.47468 -7e-5,0.66294 -0.08294,1.74017 -0.24859,3.2317 -0.1658,1.32586 -0.24867,2.32023 -0.24859,2.98312 -8e-5,1.82303 0.41424,3.31459 1.24296,4.47467 0.49711,0.16575 1.07716,-0.16571 1.74015,-0.99437 -8e-5,2e-5 -8e-5,-2.15445 0,-6.46342 -8e-5,-2.65163 0.41425,-4.72323 1.24297,-6.21482 -8e-5,2.81742 0.33137,7.04349 0.99437,12.67824 0.4971,-0.16571 0.99429,-0.91149 1.49156,-2.23734 0.4971,-1.3258 1.07715,-2.23731 1.74015,-2.73452 0.16564,-1.82299 0.74569,-4.39178 1.74015,-7.70638 -9e-5,-0.1657 -0.24868,1.98877 -0.74578,6.46342 -0.33154,2.15449 0.08278,4.14323 1.24296,5.96623 l 2.48593,-10.19231 c 0.99429,0.9944 1.16001,2.65168 0.49719,4.97186 -0.663,2.15449 -0.41441,3.72891 0.74578,4.72326 1.988649,-0.33144 3.728799,-2.15445 5.220449,-5.46904 -0.66301,-2.4859 -0.58014,-6.04907 0.24859,-10.6895 l 0.99438,0.99437 c -0.16583,2.48596 -0.08297,6.13199 0.24859,10.93809 0.66282,-1.3258 0.91141,-3.72886 0.74578,-7.20919 -10e-5,-3.646 0.49708,-6.21479 1.49155,-7.70638 l 0.74578,1.24296 c 0.16563,3.31461 0.41422,6.62918 0.74578,9.94372 0.16563,3.97751 0.82854,7.04348 1.98875,9.19794 0.99426,-1.16008 1.32572,-2.81737 0.99437,-4.97186 -0.49729,-3.81173 -0.74588,-5.63475 -0.74578,-5.46905 0.82854,-2.65162 1.24286,-5.38614 1.24296,-8.20356 -1e-4,-3.48026 -0.74588,-8.20353 -2.23733,-14.1698 -1.65739,-6.96055 -2.5689,-11.68381 -2.73453,-14.1698 l -0.99437,-1.24296 c 0.16563,-5.80043 -10e-5,-14.16972 -0.49718,-25.10789 -0.49729,-11.932364 -0.74588,-20.301653 -0.74578,-25.107893 -1e-4,-18.06428 2.40296,-32.56552 7.20919,-43.50376 13.4239,-20.88163 30.41107,-34.3056295 50.96156,-40.2720591 3.31441,-0.49698 6.62898,-0.74558 9.94371,-0.74578 11.93229,2e-4 24.44479,3.39764 37.53754,10.1923091 l 5.96623,4.22608 c 17.56701,24.36227 28.42222,56.265 32.56567,95.708293 0.33122,-0.16564 1.90564,-0.74569 4.72327,-1.74016 1.9885,-0.82855 3.56292,-1.24287 4.72327,-1.24296 1.4913,9e-5 2.81713,0.41441 3.97748,1.24296 l -0.24859,0.49719 c 0.82839,0.82873 2.23708,2.0717 4.22608,3.72889 0.49693,-0.49709 0.57979,-1.32574 0.24859,-2.48592 -0.33171,-1.16001 -0.41458,-1.98866 -0.24859,-2.48593 l -2.98312,-2.23734 c 1.65703,-2.3201 4.88874,-3.31447 9.69513,-2.98312 0.66265,0.66302 1.32556,0.99447 1.98874,0.99438 0.66265,9e-5 1.57416,-0.33136 2.73453,-0.99438 1.15982,-0.82854 2.1542,-1.24286 2.98311,-1.24296 2.1542,-2.81729 4.64012,-5.303214 7.45779,-7.457793 1.32555,0.33156 2.89997,1.408799 4.72326,3.231709 0.16545,0.82875 -0.33174,1.740254 -1.49155,2.734524 -0.99466,0.99447 -1.49184,1.82312 -1.49156,2.48593 1.32554,1.1602 2.8171,1.74025 4.47467,1.74015 1.15981,1e-4 2.8171,-0.41422 4.97186,-1.24296 2.15418,-0.82855 3.7286,-1.24287 4.72327,-1.24297 1.65699,1e-4 3.14854,0.66302 4.47467,1.98875 0.99407,-0.16564 1.73985,0.083 2.23734,0.74577 -3.1e-4,0.99447 -0.49749,1.65739 -1.49156,1.98875 -0.99467,0.16582 -1.90618,0.33155 -2.73452,0.49718 -0.16603,1.49165 -0.0832,3.4804 0.24859,5.96623 0.49689,-0.33136 1.24266,-0.66282 2.23734,-0.99437 0.99407,-0.33137 1.65698,-0.66282 1.98874,-0.99437 -0.99467,-1.32574 -0.82895,-2.07151 0.49719,-2.23734 11.1035,-0.66282 20.55002,6.13205 28.33959,20.38463 2.4856,4.47474 3.72856,10.19237 3.72889,17.15291 -3.3e-4,1.65734 -0.33179,7.20924 -0.99437,16.65573 -1.32616,4.64043 -2.90058,8.78364 -4.72326,12.42964 -4.475,4.64043 -6.46374,9.28082 -5.96623,13.92121 0.99404,-0.49718 1.57409,-1.57441 1.74015,-3.23171 0.33113,-1.823 0.99404,-2.9831 1.98874,-3.4803 v 7.20919 c -3.3e-4,0.4972 0.33113,1.49157 0.99437,2.98312 2.65133,-0.99436 4.64007,-4.55753 5.96623,-10.6895 -0.16606,-0.66289 0.0825,-1.90586 0.74578,-3.72889 -0.16606,2.65168 -3.3e-4,6.46343 0.49719,11.43527 1.49122,-1.49154 2.81705,-3.81174 3.97748,-6.9606 1.32549,-3.31455 2.40273,-5.55188 3.23171,-6.71201 0.49685,0.82867 0.49685,1.98877 0,3.4803 -0.49753,1.49158 -0.66325,2.56882 -0.49718,3.23171 -0.16607,2.15449 -3.5e-4,5.1376 0.49718,8.94935 -3.4e-4,1e-5 0.99403,-0.82864 2.98312,-2.48593 0.16538,-0.82863 0.24824,-2.9831 0.24859,-6.46342 -3.5e-4,-2.65164 0.5797,-4.55751 1.74015,-5.71764 0.49684,1.16013 0.5797,2.90028 0.24859,5.22046 -0.3318,2.65167 -0.41466,4.55755 -0.24859,5.71763 1.49121,1.32584 2.31985,1.16012 2.48593,-0.49718 l 2.73452,-6.71201 c -0.49754,2.48594 -0.49754,6.13197 0,10.93809 1.32548,-0.49718 2.40271,-1.82301 3.23171,-3.97749 0.82829,-2.32019 1.65693,-3.81174 2.48593,-4.47467 -3.6e-4,1.49157 0.3311,3.31458 0.99437,5.46904 0.99401,0.33147 1.90552,-0.0828 2.73453,-1.24296 0.994,-1.16009 1.73978,-1.823 2.23733,-1.98875 0.66255,0.16575 1.2426,0.91153 1.74015,2.23734 0.49682,1.16011 1.07687,1.82303 1.74015,1.98874 0.33109,-0.82863 1.07687,-1.65727 2.23734,-2.48593 0.33109,2e-5 0.57968,0.41434 0.74578,1.24297 0.33108,0.82865 0.91113,1.07725 1.74015,0.74578 l 2.48593,-3.4803 c 0.82826,0.33147 1.24259,0.82865 1.24296,1.49155 -3.7e-4,0.33147 -0.1661,0.82866 -0.49718,1.49156 -0.16611,0.4972 -0.24897,0.82866 -0.2486,0.99437 -3.7e-4,0.4972 0.49681,0.74579 1.49156,0.74578 1.49118,-0.49717 2.65128,-1.74014 3.4803,-3.72889 0.82826,-2.15446 1.57404,-3.48029 2.23734,-3.97749 l 0.24859,0.49719 c -3.8e-4,0.33147 -0.33184,2.15448 -0.99437,5.46904 -0.33184,2.15448 -0.4147,4.06036 -0.24859,5.71764 l 0.99437,0.74578 c 1.32544,-0.82864 2.23695,-2.40306 2.73452,-4.72327 0.66253,-2.48591 1.40831,-4.1432 2.23734,-4.97186 0.33107,0.82866 0.16534,2.07162 -0.49719,3.7289 -0.6633,1.65729 -1.07762,2.81739 -1.24296,3.4803 -3.9e-4,0.66292 0.16534,1.65729 0.49718,2.98311 0.82826,-0.16572 1.57404,-0.74577 2.23734,-1.74015 0.82825,-1.16009 1.49117,-1.90587 1.98874,-2.23733 1.32544,1.32583 2.40267,1.98875 3.23171,1.98874 0.99398,10e-6 1.57403,-0.66291 1.74015,-1.98874 -3.9e-4,1e-5 0.49679,-0.58004 1.49156,-1.74015 0.16533,0.16574 0.49679,0.41433 0.99437,0.74578 0.49679,0.33146 0.99397,0.41433 1.49156,0.24859 0.16533,-0.16572 0.33106,-0.41431 0.49719,-0.74578 0.16532,-0.49718 0.41392,-0.6629 0.74577,-0.49719 l 0.74578,6.71201 c 0.49679,-1.98873 1.24256,-3.56315 2.23734,-4.72326 0.49678,0.49719 0.74537,1.4087 0.74578,2.73452 -4.1e-4,1.16011 0.33105,1.98875 0.99437,2.48593 0.66251,-0.33145 1.07682,-1.1601 1.24296,-2.48593 0.33105,-1.32582 0.9111,-2.23733 1.74015,-2.73452 0.16532,0.49719 -4.1e-4,1.74016 -0.49719,3.72889 -0.16613,1.65729 0.24819,2.73453 1.24297,3.23171 l 2.98311,-4.22608 c 0.33105,0.33146 0.57964,0.41433 0.74578,0.24859 m -98.69139,-73.33492 v -0.24859 c -0.66323,-0.82856 -1.24328,-1.16002 -1.74015,-0.99437 l 1.74015,1.24296 m -2.48593,-1.98874 -1.24296,-1.24296 -7.2092,-3.4803 8.45216,4.72326 m -15.16417,-9.44653 c -1.49185,0.49728 -3.64632,0.9116 -6.46341,1.24296 v 4.22608 c 2.15417,-0.4971 3.56287,-0.33137 4.22608,0.49719 -0.49749,-0.82856 -0.74608,-1.24288 -0.74578,-1.24296 0.33116,-0.33138 0.57975,-0.4971 0.74578,-0.49719 1.32553,0.33154 2.07131,-0.0828 2.23733,-1.24297 -3e-4,-0.99428 -3e-4,-1.98865 0,-2.98311 m -14.41839,-11.43528 c -0.6632,-1.325724 -1.49184,-1.988644 -2.48593,-1.988744 -1.32611,1e-4 -3.23198,1.57453 -5.71764,4.723274 l 6.46342,0.24859 c 0.99409,-0.82854 1.57414,-1.82291 1.74015,-2.98312 m 22.87055,30.07975 -2.23733,-3.72889 -4.22608,-4.72327 6.46341,8.45216 m -16.65573,-15.66136 c -0.6632,0.82873 -1.07752,2.9832 -1.24296,6.46342 0.82835,-0.82856 1.24268,-2.98303 1.24296,-6.46342 m 31.8199,58.17075 c -1.16042,1.49159 -2.40338,3.89465 -3.72889,7.2092 5.9659,-9.4465 8.94902,-19.47307 8.94934,-30.07975 -3.2e-4,-8.4521 -2.15479,-15.66128 -6.46341,-21.62758 3.97716,6.29775 5.9659,13.92126 5.96623,22.87055 -3.3e-4,8.12074 -1.57475,15.32993 -4.72327,21.62758 M 299.4481,131.50617 h -1.24296 l -2.48593,1.49156 3.72889,-1.49156 m 7.2092,11.43528 c -0.16603,-2.98305 -0.99468,-5.80044 -2.48593,-8.45216 -0.66322,-0.49712 -1.40899,-0.74571 -2.23734,-0.74578 -0.82894,7e-5 -2.15477,0.41439 -3.97748,1.24297 -1.65758,0.66298 -2.81768,1.0773 -3.4803,1.24296 1.98844,0.1658 3.81146,0.74585 5.46904,1.74015 0.82834,0.33152 1.82272,1.32589 2.98312,2.98312 1.32552,1.49161 2.56849,2.15453 3.72889,1.98874 m -18.64447,-21.1304 v -4.72327 c -1.32611,-1.82292 -3.48058,-3.14875 -6.46342,-3.97748 -3.97776,-1.16001 -6.29796,-1.90579 -6.9606,-2.23734 l 0.74578,4.72327 c 1.32555,8e-5 3.14857,0.663 5.46904,1.98874 0.33118,2.65174 0.49691,5.38626 0.49719,8.20357 -2.8e-4,2.65173 -0.16601,5.30338 -0.49719,7.95497 -2.8e-4,7e-5 0.24832,-2.65159 0.74578,-7.95497 0.33118,-3.14877 0.0826,-5.71756 -0.74578,-7.70638 l 0.99438,-0.99438 c 0.99409,0.16582 2.15419,0.74587 3.4803,1.74015 0.82836,0.99446 1.73986,1.98883 2.73452,2.98312 m 6.9606,11.43528 c -1.98903,0.33152 -3.31486,1.16016 -3.97749,2.48592 0.66263,0.1658 1.32554,-0.16566 1.98875,-0.99437 0.82835,-0.82857 1.49126,-1.32576 1.98874,-1.49155 m -22.12477,-22.37337 c -0.166,9e-5 -1.40896,0.66301 -3.72889,1.98874 -1.49183,0.99446 -2.23761,2.0717 -2.23734,3.23171 -2.7e-4,0.49727 0.16546,1.16019 0.49719,1.98875 l 4.72326,-2.23734 c 0.9941,-0.16564 1.40842,-0.82856 1.24297,-1.98874 -0.33173,-1.98866 -0.49746,-2.98303 -0.49719,-2.98312 m -7.2092,6.21482 v -3.72889 c -1.16036,-2.48584 -2.56905,-3.48021 -4.22608,-2.98312 l 0.49719,4.22608 3.72889,2.48593 m 58.41935,69.10884 c -0.9947,1.49157 -1.40902,3.23172 -1.24297,5.22045 0.66259,-0.49717 0.91119,-1.32581 0.74578,-2.48593 -3.2e-4,-1.32581 0.16541,-2.23732 0.49719,-2.73452 m -36.79176,-37.28894 c -1.32611,-2.48587 -3.56345,-6.29763 -6.71201,-11.43527 l -1.74015,-0.2486 -8.94935,14.66699 h 0.74578 l -0.24859,-0.2486 c 1.65702,-3.31452 4.4744,-8.03778 8.45216,-14.16979 h 0.74578 c 0.49691,0.49725 1.07696,1.24302 1.74015,2.23733 -1.49184,1.65735 -3.8949,5.4691 -7.2092,11.43528 l 13.17543,-2.23734 M 264.3965,120.0709 c -4.80639,3.14892 -8.61814,7.70646 -11.43528,13.67261 4.30869,-6.29761 8.12045,-10.85514 11.43528,-13.67261 m 51.70733,62.89401 -3.4803,2.98312 v 0.74578 c 2.15416,-1.32581 3.31426,-2.56878 3.4803,-3.7289 m -7.20919,-4.72326 c -0.16604,0.49721 -0.74609,1.24299 -1.74015,2.23733 -0.99468,0.82867 -1.409,1.65731 -1.24297,2.48593 -3e-4,-0.16571 0.99407,-1.74013 2.98312,-4.72326 m -38.53191,-42.75799 c -2.15474,-2.1544 -5.88363,-3.97741 -11.18668,-5.46904 -2.81764,4.14328 -4.64066,7.95504 -5.46905,11.43527 h 0.49719 l -0.49719,-0.49718 c 1.82276,-5.13752 4.22583,-8.78355 7.2092,-10.93809 -2.6e-4,7e-5 0.41406,0.66298 1.24296,1.98874 -2.6e-4,0.1658 -1.40895,2.56886 -4.22608,7.2092 1.15985,-1.82295 2.98286,-2.81732 5.46905,-2.98312 2.48566,-0.33139 4.80586,-0.57998 6.9606,-0.74578 m 50.71296,6.21483 c -7.29237,12.26396 -16.73889,17.65014 -28.33959,16.15854 l 0.49718,0.49718 c -2.9e-4,2.15452 -0.99466,3.97753 -2.98311,5.46905 l -0.49719,-0.49719 c -0.16602,-1.65724 0.41403,-3.64599 1.74015,-5.96623 h -1.24296 c 0.16544,0.82869 0.0826,1.90592 -0.2486,3.23171 -0.33174,1.16014 -0.41461,2.07165 -0.24859,2.73452 -0.99466,0.66295 -2.40335,0.99441 -4.22608,0.99437 -2.9834,4e-5 -4.55782,4e-5 -4.72327,0 -0.49746,-0.8286 -0.74605,-1.24292 -0.74577,-1.24296 0.4969,-2.65162 -0.16601,-4.22604 -1.98875,-4.72327 -0.99465,-0.33141 -2.98339,-0.33141 -5.96623,0 -2.98338,0.16578 -4.97212,5e-5 -5.96623,-0.49718 -2.6e-4,0.49723 0.24833,1.243 0.74578,2.23733 -0.66318,0.66296 -1.65755,1.4916 -2.98312,2.48593 -0.33172,-0.8286 -0.58031,-2.23729 -0.74577,-4.22608 0.66265,-0.66287 1.2427,-0.99432 1.74015,-0.99437 h -1.74015 c 0.49692,1.4916 0.33119,3.48034 -0.49719,5.96623 -1.82327,4e-5 -3.64629,4e-5 -5.46905,0 -1.98899,-0.16569 -3.39768,-1.16006 -4.22608,-2.98311 0.49694,-2.65162 -0.5803,-5.71759 -3.2317,-9.19794 -2.48618,-3.48025 -3.64628,-6.29763 -3.4803,-8.45216 l -0.49719,8.45216 c 0.66267,8.94939 4.47442,14.99847 11.43527,18.14728 -2.5e-4,4e-5 0.41407,-0.58001 1.24297,-1.74015 1.15984,-0.33142 2.40281,-0.49715 3.72889,-0.49718 2.98286,3e-5 6.79461,1.16013 11.43528,3.4803 -0.166,1.16013 -0.82892,2.90028 -1.98874,5.22045 -2.7e-4,3e-5 1.40842,0.58007 4.22608,1.74015 0.16545,-0.66289 0.57977,-1.40867 1.24296,-2.23734 0.66264,0.49722 0.91123,1.24299 0.74578,2.23734 4.80585,0.49721 9.94343,0.58007 15.41276,0.24859 0.49689,-0.1657 0.74549,-0.58002 0.74578,-1.24296 -2.9e-4,-0.49716 -0.24889,-1.3258 -0.74578,-2.48593 -0.49748,-1.3258 -0.82893,-2.15444 -0.99437,-2.48593 1.15981,-0.82861 2.81709,-1.40866 4.97186,-1.74015 3.48,-0.33143 5.22015,-0.49715 5.22045,-0.49719 0.66261,0.49722 0.99407,1.32586 0.99437,2.48593 -3e-4,1.65732 -3e-4,2.56882 0,2.73452 l 10.19231,-0.49718 c 1.32552,-0.82862 1.98843,-1.24294 1.98875,-1.24297 3.14852,-3.31454 4.97154,-8.20353 5.46904,-14.66698 -3.2e-4,-5.469 -3.2e-4,-10.93803 0,-16.40713 M 317.3468,193.903 v -0.49718 h -1.24297 l 1.24297,0.49718 m -13.92121,-8.45216 c -1.32613,0.99439 -3.06628,2.65168 -5.22045,4.97186 1.65699,-0.6629 3.39714,-2.32018 5.22045,-4.97186 m -24.11351,-3.4803 -0.49719,2.23734 0.49719,-2.23734 m -8.20357,-3.72889 c -0.99464,-0.16571 -2.15474,-0.91148 -3.4803,-2.23734 0.49692,-0.82861 0.9941,-1.74012 1.49156,-2.73452 0.49691,-1.16007 0.49691,-1.90585 0,-2.23734 -2.7e-4,3e-5 -0.74605,1.98878 -2.23734,5.96623 0.9941,0.16576 2.4028,0.58008 4.22608,1.24297 m -14.91558,-4.72327 c -4.30919,-2.65162 -7.78949,-6.8777 -10.4409,-12.67824 -1.65753,-2.65161 -2.48617,-5.96618 -2.48593,-9.94372 -2.4e-4,-3.97743 0.8284,-7.292 2.48593,-9.94371 -2.4e-4,-0.66286 -0.16597,-1.4915 -0.49719,-2.48593 -2.32044,6.6292 -2.73476,13.09261 -1.24296,19.39025 1.49131,6.62918 5.55166,11.84963 12.18105,15.66135 m -1.49155,16.90432 c -11.60125,-8.61787 -18.72757,-19.63881 -21.379,-33.06286 -0.16596,-2.32015 -0.24882,-4.55749 -0.24859,-6.71201 -2.3e-4,-14.08687 4.64016,-24.52776 13.9212,-31.32271 1.65704,-0.82856 4.06011,-2.07152 7.2092,-3.72889 -1.82327,0.16581 -3.56342,0.99445 -5.22045,2.48593 -5.13783,2.48601 -9.03245,6.29776 -11.68387,11.43527 -3.14908,5.63484 -4.7235,11.93252 -4.72327,18.89306 -2.3e-4,11.60105 3.6458,22.53913 10.93809,32.81427 2.31996,2.65168 6.04885,5.71766 11.18669,9.19794 m -20.88181,-71.59477 c -0.9946,-13.25819 -3.23194,-26.267873 -6.71201,-39.029093 -0.82887,-4.30881 -2.40329,-9.77785 -4.72327,-16.40713 -0.4974,0.49732 -0.99459,0.49732 -1.49155,0 -0.49741,-0.33132 -0.99459,-0.74564 -1.49156,-1.24297 l 0.99437,-0.99437 c 0.99415,-0.33131 1.32561,-1.24282 0.99437,-2.73452 -0.4974,-2.65151 -0.746,-3.97734 -0.74578,-3.97749 -2.48614,-3.97733 -3.81197,-6.29753 -3.97748,-6.9606 -0.16595,-0.66276 -0.66313,-2.23718 -1.49156,-4.72327 -0.66313,-1.98858 -1.6575,-3.3144 -2.98312,-3.97748 -2.1e-4,1.6e-4 -0.2488,-0.82848 -0.74578,-2.48593 -0.33166,-0.99421 0.0827,-1.73998 1.24297,-2.23734 4.64018,3.48047 8.20335,9.03237 10.68949,16.65573 3.31435,10.10959 5.63455,16.3244 6.96061,18.64447 v -1.74015 c -0.82887,-3.48016 -2.32043,-8.53488 -4.47468,-15.16417 -0.99459,-4.9717 -3.72911,-10.68934 -8.20356,-17.15291 -6.46363,-9.61209 -9.94393,-14.9154 -10.44091,-15.90995 -8.45235,-6.2975 -15.82727,-10.0263895 -22.12477,-11.1866795 -6.13213,-1.82282 -12.18122,-2.7343296 -18.14728,-2.7345296 -8.12086,2e-4 -14.75,1.8232096 -19.88744,5.4690491 -0.66306,1.9e-4 -1.32597,0.58024 -1.98874,1.74015 -0.66306,0.99456 -1.40884,1.40888 -2.23734,1.24296 -2.81752,5.3035 -7.37506,14.75003 -13.67261,28.3396 -4.80625,15.91009 -7.20932,34.72027 -7.2092,56.430599 -1.2e-4,13.921294 0.99426,28.256804 2.98312,43.006584 -1.2e-4,0.49724 1.98862,10.27522 5.96623,29.33396 0.33133,0.33149 0.57992,1.32586 0.74578,2.98312 0.33133,1.49158 1.0771,2.1545 2.23734,1.98874 -7.29219,-20.05312 -10.68962,-47.39831 -10.19231,-82.035673 -0.33158,-2.983 -0.49731,-5.88325 -0.49719,-8.70075 -1.2e-4,-17.40137 6.13183,-39.77472 18.39588,-67.1201 2.32006,-4.30875 7.5405,-7.209 15.66135,-8.7007495 1.4914,0.6631095 1.98859,1.5746095 1.49156,2.7345195 -3.64618,1.32602 -7.70653,4.392 -12.18105,9.19794 -3.31472,6.29786 -6.04924,14.00424 -8.20357,23.11915 -0.49732,2.32035 -1.98888,10.44105 -4.47467,24.3621 2.65152,6.62928 7.12619,16.24153 13.42401,28.836779 0.49704,-0.49708 0.57991,-1.15999 0.2486,-1.988739 -0.33161,-0.99426 -0.41447,-1.57431 -0.2486,-1.74015 -1.4e-4,0.49729 -0.083,-1.90577 -0.24859,-7.20919 -0.16587,-2.81727 0.24845,-5.13747 1.24297,-6.96061 -0.33161,0.16585 -0.74593,0.08299 -1.24297,-0.24859 -0.16587,-0.33133 -0.083,-0.66279 0.24859,-0.99437 l -0.24859,-0.24859 c -0.16587,1.2e-4 -1.90602,0.08298 -5.22045,0.24859 -1.4e-4,-0.16561 0.16559,-0.4142 0.49719,-0.74578 -0.16587,-0.1656 -0.3316,-0.57993 -0.49719,-1.24297 2.65152,-1.3257 4.80599,-1.65715 6.46342,-0.99437 0.82849,0.16586 1.90573,-0.24846 3.2317,-1.24296 1.32568,0.33158 2.73437,0.33158 4.22608,0 1.98859,-0.66279 3.23156,-0.99424 3.7289,-0.99437 0.82848,1.3e-4 1.57426,0.24872 2.23734,0.74578 2.98295,2.81751 4.4745,4.39193 4.47467,4.72326 -1.7e-4,1.49168 -0.58022,3.0661 -1.74015,4.72327 -1.32599,2.15459 -2.65182,2.90036 -3.97749,2.23733 v 0.99438 h 2.23734 c 0.99421,0.82875 1.40853,1.82312 1.24296,2.98311 1.32567,0.82876 1.32567,2.48604 0,4.97186 0.49702,0.49729 1.07707,1.24307 1.74015,2.237339 0.49702,-0.16563 1.15994,-0.49708 1.98875,-0.994379 0.16556,0.497299 0.33129,0.663019 0.49718,0.497189 0.33129,-0.331349 0.57988,-0.497079 0.74578,-0.497189 -1.7e-4,1.1e-4 0.16556,0.580159 0.49719,1.740149 -0.49736,1.49167 -2.15464,2.23744 -4.97186,2.23734 -0.33162,-0.33135 -0.99454,-0.66281 -1.98875,-0.99437 -0.8288,-0.33135 -1.16026,-0.9114 -0.99437,-1.74015 -1.16026,-0.33135 -1.57458,-1.077129 -1.24296,-2.237339 0.16557,-1.65717 0.24843,-2.56868 0.24859,-2.73452 -0.66307,-0.82853 -0.49734,-1.57431 0.49719,-2.23734 -4.14337,-1.65717 -7.54081,-1.90576 -10.19231,-0.74578 l 0.74577,0.74578 -0.24859,0.49719 c 0.66277,0.82875 0.91136,1.90599 0.74578,3.23171 -0.49734,2.3203 -0.74593,3.480399 -0.74578,3.480299 -1.5e-4,1e-4 0.41417,0.2487 1.24297,0.74578 0.49703,0.33156 0.91135,0.24869 1.24296,-0.2486 0.16558,0.33157 0.66276,0.33157 1.49156,0 0.66276,-0.16562 1.15994,0.08297 1.49156,0.74578 -0.16589,0.99448 -0.91167,1.988854 -2.23734,2.983124 l -0.24859,-0.24859 c -1.16025,-0.66282 -2.9004,-0.82855 -5.22045,-0.49719 0.49703,1.49166 1.40854,3.72899 2.73452,6.71201 1.4914,2.81748 2.40291,4.97195 2.73452,6.46342 2.98296,7.29214 8.53486,12.9269 16.65573,16.90432 4.14304,1.98881 11.76655,4.39187 22.87055,7.20919 6.13176,2.15454 15.74401,4.5576 28.83678,7.2092 0.49696,-4.30889 0.99415,-7.292 1.49156,-8.94935 0.66269,-3.3145 1.73992,-6.13189 3.2317,-8.45216 0.16551,-0.49711 0.74556,-1.40862 1.74016,-2.73452 0.99414,-1.32575 1.49132,-2.32012 1.49155,-2.98312 -2.3e-4,-0.4971 -0.24882,-0.99429 -0.74578,-1.49155 0.99415,8e-5 2.23711,-0.57997 3.7289,-1.74016 m 23.36773,65.62854 c -0.99462,-2.15445 -2.73477,-5.38616 -5.22045,-9.69512 1.15985,3.64605 2.9,6.87776 5.22045,9.69512 M 162.2248,82.781957 c -0.49734,-0.49707 -0.74594,-0.99425 -0.74578,-1.49156 -1.6e-4,-0.49706 0.24844,-0.99425 0.74578,-1.49156 -1.6e-4,0.16585 -0.41448,-0.08274 -1.24296,-0.74578 -1.6e-4,1.3e-4 0.16557,-0.57992 0.49718,-1.74015 -2.98327,0.16586 -5.38633,-0.08274 -7.20919,-0.74578 l -2.23734,1.98875 -0.49719,-0.24859 c -0.82879,0.4973 -0.91165,1.82313 -0.24859,3.97748 0.66277,1.98886 0.49704,3.48042 -0.49718,4.47468 1.15995,-0.33135 2.98296,-0.9114 5.46904,-1.74016 0.49703,0.33158 0.99422,0.49731 1.49156,0.49719 0.49703,1.2e-4 1.24281,-0.4142 2.23733,-1.24296 0.99422,-0.82853 1.74,-1.32571 2.23734,-1.49156 m 97.44843,104.657633 v -0.74578 l -0.74577,-0.74578 0.74577,1.49156 m -36.29457,-15.16417 c -2.2e-4,-1.16007 -0.16595,-2.81736 -0.49718,-4.97186 l -0.99437,4.97186 0.49718,-0.49719 c 0.16551,3e-5 0.49697,0.16576 0.99437,0.49719 m 6.96061,9.44653 h -0.2486 c -0.9946,-0.66289 -1.40892,-1.82299 -1.24296,-3.4803 -0.33168,1.49158 -0.0831,3.14886 0.74578,4.97186 0.33123,-0.16571 0.57982,-0.6629 0.74578,-1.49156 m -4.47468,-0.99437 h -0.99437 c -0.33168,-0.33144 -0.82886,-1.16008 -1.49156,-2.48593 -0.33167,0.82866 -0.4974,1.82304 -0.49718,2.98311 -2.2e-4,1.16012 0.16551,2.15449 0.49718,2.98312 h 0.74578 c 0.49697,-0.82863 1.07702,-1.98872 1.74015,-3.4803 m -13.17542,-5.96623 -0.49719,-5.46905 0.49719,5.46905 m 7.20919,5.46904 c -2.1e-4,0.82867 -0.4974,1.57444 -1.49155,2.23734 -0.82886,0.66293 -1.24318,1.16012 -1.24297,1.49156 -2.1e-4,0.4972 0.16551,0.99438 0.49719,1.49155 0.82842,-0.33144 1.40847,-1.07721 1.74015,-2.23733 0.33124,-1.823 0.49697,-2.81737 0.49718,-2.98312 m -4.72326,0.49719 -1.74015,-0.74578 c -0.99459,-1.32581 -1.40891,-2.7345 -1.24297,-4.22608 -0.66312,4.97188 -0.33167,7.87213 0.99437,8.70075 0.66271,-0.33144 1.32562,-1.5744 1.98875,-3.72889 m -15.16417,-10.44091 v -3.97748 c -0.33166,0.49722 -0.49739,1.16013 -0.49719,1.98874 -2e-4,0.66295 0.16553,1.32586 0.49719,1.98874 M 135.62536,18.147787 c -3.14898,1.8232 -7.54078,5.63496 -13.17543,11.43528 -8.78373,6.79504 -14.58422,16.07583 -17.40151,27.84241 -1.82311,7.95511 -2.56889,19.22464 -2.23733,33.80864 -0.16583,3.48041 -0.2487,6.877839 -0.24859,10.192313 -1.1e-4,11.93255 2.23723,28.75399 6.712,50.46437 0.33135,2.15452 0.74568,4.39185 1.24297,6.71201 0.49708,2.32024 1.32572,3.89466 2.48593,4.72326 -1.6574,-8.28638 -4.06046,-20.79888 -7.2092,-37.53753 -2.48603,-15.5784 -2.73462,-35.217223 -0.74578,-58.916533 -0.99447,-3.14871 -0.58015,-6.29755 1.24297,-9.44653 0.16562,-6.96045 5.38607,-14.99828 15.66135,-24.11352 0.99426,-2.32003 3.23159,-4.88882 6.71201,-7.70638 3.6459,-2.81721 5.9661,-5.30313 6.96061,-7.45779 m 73.33491,163.574163 h -0.49718 c -1.49176,-0.49717 -2.23754,-1.49154 -2.23734,-2.98312 -2e-4,-1.3258 -2e-4,-2.65163 0,-3.97748 -2e-4,2e-5 -0.2488,1.65731 -0.74578,4.97186 -0.16593,1.98876 0.0827,3.56318 0.74578,4.72326 0.82844,0.16575 1.32562,-0.16571 1.49156,-0.99437 0.33125,-0.99435 0.74557,-1.5744 1.24296,-1.74015 m -5.96623,-3.4803 h -0.99437 c -0.66311,1.49158 -0.74598,2.65168 -0.24859,3.4803 l 1.24296,-3.4803 m -3.4803,-5.46905 c -0.16592,0.49722 -0.58025,1.49159 -1.24296,2.98312 -0.66311,1.49158 -0.99457,2.56882 -0.99437,3.23171 -2e-4,0.66293 0.16553,1.24298 0.49718,1.74015 0.16553,-2.48591 0.74558,-5.13756 1.74015,-7.95498 m -6.71201,11.43528 c -0.49737,-1.32581 -0.58024,-3.31455 -0.24859,-5.96623 0.33127,-2.65163 0.2484,-4.64037 -0.24859,-5.96623 l -0.74578,9.69512 c -0.16592,0.16575 -0.49738,0.82866 -0.99437,1.98875 -0.49738,0.99438 -0.58024,1.74016 -0.2486,2.23733 0.66273,0.33148 1.15991,0.24861 1.49156,-0.24859 0.33127,-0.6629 0.66272,-1.24295 0.99437,-1.74015 m -5.96623,-0.49719 c -0.99455,-3.31455 -1.40887,-6.87771 -1.24296,-10.68949 -1.16029,2.98314 -1.57461,6.13198 -1.24297,9.44653 -1.8e-4,0.99439 0.82846,1.40871 2.48593,1.24296 m -5.46904,-4.97186 c -1.8e-4,-0.1657 -0.74596,-2.98308 -2.23734,-8.45216 -0.66309,0.99441 -0.91168,2.48596 -0.74578,4.47468 0.49701,2.48595 0.66274,4.2261 0.49719,5.22045 l 2.48593,-1.24297 m -8.45216,-9.94371 c -1.7e-4,-0.82861 -0.1659,-1.90585 -0.49719,-3.23171 -0.49735,0.49722 -0.74595,1.90591 -0.74578,4.22608 0.66275,-0.66288 1.07707,-0.99434 1.24297,-0.99437 m 8.70075,12.42964 v -1.74015 l -0.24859,1.74015 h 0.24859 m -16.40713,-8.94934 v 0 m 9.69512,10.93809 -0.74578,-1.49156 0.2486,3.72889 0.49718,-2.23733 m -5.96623,-3.23171 c -1.32599,0.66293 -2.32037,0.91153 -2.98311,0.74578 -0.33163,1.49158 -0.33163,3.48032 0,5.96623 0.9942,-0.6629 1.65712,-1.65727 1.98874,-2.98312 0.33129,-1.32581 0.66275,-2.56877 0.99437,-3.72889 m -9.69512,-5.46905 c -0.49735,-0.49715 -0.74594,-1.65725 -0.74578,-3.4803 h -0.49719 c -0.49734,0.9944 -0.5802,2.56883 -0.24859,4.72327 0.3313,2.48595 0.41416,3.97751 0.24859,4.47467 l 1.24297,-5.71764 m 4.22608,5.71764 c -1.65745,-0.1657 -2.65182,0.82867 -2.98312,2.98312 -0.16589,1.98876 0.16557,3.56318 0.99437,4.72326 0.66276,-0.99435 1.32567,-3.56314 1.98875,-7.70638 m -10.44091,6.46342 V 173.0212 c -1.5e-4,0.16575 -0.24874,2.56882 -0.74578,7.20919 -0.3316,2.65168 -0.24874,4.97188 0.2486,6.9606 l 0.49718,-0.49718 m -5.22045,-1.24297 -1.74015,-0.49718 0.49719,2.48593 h 0.74577 c -1.4e-4,-0.49717 0.16559,-1.16009 0.49719,-1.98875 m -31.8199,-7.20919 c 0.33135,-1.49153 0.24848,-3.31455 -0.24859,-5.46905 -0.82876,-3.64599 -1.32594,-5.46901 -1.49156,-5.46904 0.16562,2.48596 0.74567,6.13199 1.74015,10.93809 m -5.96623,4.97186 -2.98311,-11.43528 v 6.46342 c 0.33135,0.99439 0.66281,2.07163 0.99437,3.23171 0.33135,1.16012 0.99426,1.74017 1.98874,1.74015 M 201.25389,28.588697 c -2e-4,1.7e-4 -0.58025,0.1659 -1.74015,0.49718 l -0.49718,-0.49718 c 0.33126,-0.33129 0.74558,-0.49701 1.24296,-0.49719 0.33126,1.8e-4 0.66272,0.1659 0.99437,0.49719 m -10.68949,-2.48593 c -1.9e-4,1.7e-4 -0.41451,-0.24842 -1.24297,-0.74578 l 0.99437,-1.74015 c -1.9e-4,1.8e-4 0.16554,0.4145 0.49719,1.24296 0.33127,0.49737 0.2484,0.91169 -0.24859,1.24297 m -19.88744,-11.93246 c -0.82881,0.6631 -1.24313,0.99456 -1.24296,0.99437 l -0.74578,-0.99437 c 0.16556,-0.33127 0.49702,-0.497 0.99437,-0.49719 0.49702,1.9e-4 0.82847,0.16592 0.99437,0.49719 m 22.37337,25.10788 c 0.16553,0.1659 0.0827,0.41449 -0.2486,0.74578 -0.33165,-0.16556 -0.6631,-0.57988 -0.99437,-1.24296 0.33127,1.6e-4 0.74559,0.16589 1.24297,0.49718 m 18.39587,18.64447 c -2.1e-4,0.16588 -0.16593,0.41447 -0.49718,0.74578 l -1.24297,-1.24296 c 0.33125,-0.49704 0.9113,-0.33131 1.74015,0.49718 m 16.15854,31.32271 c -0.16595,2.32032 -0.746,3.48042 -1.74015,3.48031 -0.49741,-0.16562 -1.24318,-0.66281 -2.23733,-1.49156 -0.16595,-1.49145 0.24837,-2.56868 1.24296,-3.23171 1.65706,-0.16561 2.56857,0.24871 2.73452,1.24296 m -4.22608,-15.66135 c 0.16551,1.16023 -0.16595,2.40319 -0.99437,3.72889 -1.32605,2.32033 -1.98896,3.48043 -1.98874,3.4803 -1.49178,-0.49706 -2.48615,0.08299 -2.98312,1.74016 -0.4974,-0.49707 -0.99458,-0.57993 -1.49155,-0.2486 -0.82886,0.33158 -1.32605,0.49731 -1.49156,0.49719 -0.33167,1.2e-4 -0.66313,-0.24847 -0.99437,-0.74578 -2.1e-4,1.2e-4 -1.24318,0.24871 -3.7289,0.74578 0.33125,0.66303 0.49698,2.15459 0.49719,4.47467 -2.1e-4,3.14896 1.07703,4.64051 3.23171,4.47467 0.16551,-0.16561 0.57983,-0.33134 1.24296,-0.49718 -0.4974,1.65739 -0.74599,2.5689 -0.74578,2.73452 -0.16594,1.1e-4 -0.41453,-0.16562 -0.74578,-0.49719 -2.1e-4,1.1e-4 -0.58026,0.16584 -1.74015,0.49719 -0.49739,-0.82853 -1.24317,-1.15999 -2.23733,-0.99437 l -1.24297,1.24296 c -2e-4,-0.16562 -0.41453,-0.24848 -1.24296,-0.24859 -0.33166,0.66302 -1.49176,0.74589 -3.4803,0.24859 -2.1e-4,-0.6628 0.41412,-1.32572 1.24296,-1.98874 0.82844,1.1e-4 1.73995,-0.33135 2.73452,-0.99437 -2e-4,-0.99426 0.41412,-2.48582 1.24297,-4.47467 -0.66312,-1.49145 -0.99458,-3.81164 -0.99437,-6.96061 -2.1e-4,-3.14872 -0.2488,-5.55178 -0.74578,-7.20919 -0.66312,1.3e-4 -1.49176,-0.41419 -2.48593,-1.24297 l -0.49719,0.49719 c -0.49739,-0.1656 -1.07743,-0.74565 -1.74015,-1.74015 0.33126,1.3e-4 0.74558,-0.08273 1.24297,-0.24859 l -0.2486,-0.49719 0.2486,-0.49719 c 0.66271,0.33159 1.49135,0.33159 2.48593,0 1.15989,-0.33132 1.90567,-0.49705 2.23733,-0.49718 0.66271,1.3e-4 1.24276,0.33159 1.74015,0.99437 0.33125,1.3e-4 0.74557,-0.24846 1.24297,-0.74578 0.6627,-0.66278 1.15989,-0.99424 1.49156,-0.99437 0.33124,1.3e-4 0.6627,0.41445 0.99437,1.24296 0.49697,-0.66278 1.32561,-0.91137 2.48593,-0.74578 1.15988,1.4e-4 1.90566,-0.16559 2.23733,-0.49718 1.49134,0.9945 3.23149,2.98325 5.22045,5.96623 m -5.71763,13.42402 c -2.2e-4,0.16584 -0.4974,0.33157 -1.49156,0.49718 -0.33167,-0.66279 -0.16594,-1.07712 0.49719,-1.24296 0.49697,1.2e-4 0.82842,0.24871 0.99437,0.74578 m -54.69045,-54.19326 c 0.16557,0.33162 0.0827,0.66308 -0.24859,0.99437 l -0.99437,-0.99437 h 1.24296 m 141.20079,141.200793 -0.74578,-5.22045 c -1.32613,-0.1657 -3.06628,3e-5 -5.22045,0.49718 -1.98904,0.49722 -3.39773,0.82868 -4.22608,0.99437 1.65699,-1.65725 5.05443,-2.40303 10.19231,-2.23733 -3e-4,3e-5 0.24829,1.07727 0.74578,3.23171 0.33115,1.32585 0.0826,2.23736 -0.74578,2.73452 M 154.26983,26.599947 l -0.49719,0.2486 c -0.16588,-0.16556 -0.5802,-0.24842 -1.24296,-0.2486 l 0.49718,-1.24296 1.24297,1.24296 m 73.33491,75.820853 c -0.16595,1e-4 -0.746,0.16583 -1.74015,0.49719 l -0.49718,-0.49719 c 0.1655,-0.33136 0.49696,-0.57995 0.99437,-0.74578 0.49696,-0.16563 0.91128,0.083 1.24296,0.74578 M 153.02686,35.052107 c -0.16588,0.1659 -0.66306,0.24876 -1.49156,0.2486 l -0.24859,-0.74578 c 0.49704,-0.16556 1.07709,1.7e-4 1.74015,0.49718 m 74.57788,75.820853 c -2.2e-4,0.16582 -0.16595,0.41441 -0.49718,0.74578 -2.3e-4,9e-5 -0.41455,-0.2485 -1.24297,-0.74578 0.16551,-0.33136 0.4141,-0.49709 0.74578,-0.49719 0.49696,1e-4 0.82842,0.16583 0.99437,0.49719 m -10.68949,-5.46904 c -0.16595,0.16582 -0.58027,0.24869 -1.24297,0.24859 -0.33167,10e-5 -0.4974,-0.16563 -0.49718,-0.49719 -2.2e-4,-0.33136 0.16551,-0.57995 0.49718,-0.74578 l 1.24297,0.99438 M 170.67696,62.645927 c 0.16556,0.16587 -1.7e-4,0.41446 -0.49718,0.74578 l -0.74578,-0.74578 h 1.24296 m 29.33397,30.32834 c -2e-4,0.82875 -0.16593,1.57453 -0.49719,2.23734 -0.16592,0.49729 -0.58025,0.74588 -1.24296,0.74577 -2e-4,1.1e-4 -0.74598,-0.24848 -2.23734,-0.74577 -0.16592,-1.49145 0.33126,-2.81728 1.49156,-3.97749 1.49136,0.16584 2.32,0.74589 2.48593,1.74015 m -7.2092,1.74015 -1.24296,0.99437 c 0.16554,1.1e-4 0.2484,0.41443 0.24859,1.242969 -0.16592,1e-4 -0.41451,-0.16563 -0.74578,-0.49719 -0.49737,0.66302 -1.24315,0.99448 -2.23733,0.99437 -1.8232,-0.16562 -2.81758,-0.24849 -2.98312,-0.24859 l -0.74578,-0.74578 c -1.49174,2.48603 -2.90043,2.73463 -4.22608,0.74578 l -0.49718,0.49718 c -0.82883,-0.49708 -1.24315,-0.74567 -1.24297,-0.74577 -0.1659,-0.49708 0.16555,-1.077129 0.99437,-1.740149 0.49701,0.49729 0.91133,0.74588 1.24297,0.74577 0.497,1.1e-4 1.07705,-0.24848 1.74015,-0.74577 0.66273,-0.49708 1.15992,-0.82854 1.49156,-0.99438 0.82846,-1.15999 0.57986,-2.56868 -0.74578,-4.22608 -1.9e-4,1.2e-4 0.41414,-0.24848 1.24296,-0.74578 -0.49737,-0.99425 -0.74596,-2.32008 -0.74578,-3.97748 -1.8e-4,-0.6628 -1.8e-4,-1.65717 0,-2.98312 0.16555,-1.49143 0.24841,-2.56867 0.2486,-3.23171 -1.9e-4,-1.98861 -0.41451,-3.56303 -1.24297,-4.72326 -0.66309,-0.33133 -1.74033,-0.33133 -3.23171,0 l -0.49718,-1.74015 c 0.16555,0.16586 0.41414,0.08299 0.74578,-0.2486 v -0.99437 c 0.497,0.66305 1.32564,0.9945 2.48593,0.99437 1.15991,1.3e-4 1.90569,0.083 2.23733,0.2486 0.33128,-0.49706 0.99419,-0.74565 1.98875,-0.74578 0.99418,-0.1656 1.57423,-0.57992 1.74015,-1.24297 l 3.4803,0.49719 c -1.9e-4,0.66305 -0.41451,1.49169 -1.24297,2.48593 -0.6631,-0.66279 -1.32601,-0.74565 -1.98874,-0.24859 -0.6631,0.49731 -0.99456,1.16022 -0.99437,1.98874 -0.16592,-0.1656 -0.41451,-0.08274 -0.74578,0.24859 0.33127,0.33159 0.41413,0.82877 0.24859,1.49156 -0.49737,0.82877 -0.74596,1.24309 -0.74578,1.24297 0.66273,1.6574 0.82846,4.06047 0.49719,7.20919 -0.33164,2.98323 -0.0831,5.38629 0.74578,7.2092 l -0.74578,0.74577 c -1.9e-4,1.1e-4 0.74559,0.24871 2.23733,0.74578 0.99419,0.16584 1.73997,0.08298 2.23734,-0.24859 l 0.99437,0.74578 m 28.83678,24.610703 c -2.2e-4,0.16581 -0.16594,0.41441 -0.49718,0.74578 l -0.74578,-0.74578 h 1.24296 M 150.29234,51.210647 c 0.16558,0.16588 0.0827,0.41448 -0.24859,0.74578 -0.16588,1.5e-4 -0.66307,-0.24844 -1.49156,-0.74578 0.16558,-0.3313 0.49704,-0.49703 0.99437,-0.49718 0.33131,1.5e-4 0.5799,0.16588 0.74578,0.49718 m 55.93341,57.424973 c -2e-4,0.16583 -0.58025,0.33155 -1.74015,0.49719 l -0.24859,-0.49719 c 0.16552,-0.49709 0.49698,-0.74568 0.99437,-0.74577 0.49698,9e-5 0.82844,0.24868 0.99437,0.74577 m 5.46905,8.20357 c 0.16551,0.16582 0.0827,0.41441 -0.2486,0.74578 -2.1e-4,8e-5 -0.41453,-0.24851 -1.24296,-0.74578 0.16552,-0.33137 0.41411,-0.4971 0.74578,-0.49718 0.49697,8e-5 0.74557,0.16581 0.74578,0.49718 m 10.19231,11.43528 c 0.16551,0.33153 0.0826,0.74585 -0.2486,1.24296 -2.2e-4,7e-5 -0.41454,-0.33138 -1.24296,-0.99437 0.33124,-0.33138 0.82842,-0.41425 1.49156,-0.24859 M 142.33737,52.702207 c -1.4e-4,0.33161 -0.16587,0.66307 -0.49719,0.99437 h -0.74578 c -0.3316,-0.49703 -0.24873,-0.91135 0.24859,-1.24296 0.49705,-0.33131 0.82851,-0.24844 0.99438,0.24859 m 4.22608,5.22045 c -0.99452,0.49733 -1.57457,0.66306 -1.74015,0.49719 0.49704,-0.49704 1.07709,-0.66277 1.74015,-0.49719 m 29.58256,38.03472 c 0.49701,1.823119 -0.16591,2.817489 -1.98875,2.983119 -1.7e-4,1e-4 -0.74595,-0.24849 -2.23733,-0.74578 -0.1659,-1.988639 0.41415,-3.397329 1.74015,-4.226079 1.49138,0.33157 2.32002,0.99448 2.48593,1.98874 m -30.07975,-28.33959 c 0.16558,0.16586 0.0827,0.41445 -0.24859,0.74578 -0.3316,0.16586 -0.82879,0.083 -1.49156,-0.2486 0.8285,-0.99423 1.40855,-1.15996 1.74015,-0.49718 m 59.9109,60.159493 c -0.82885,0.66299 -1.4089,0.91158 -1.74015,0.74578 -0.33166,7e-5 -0.49739,-0.16565 -0.49719,-0.49719 -2e-4,-0.33138 0.16553,-0.57997 0.49719,-0.74578 0.49698,8e-5 1.07703,0.16581 1.74015,0.49719 M 140.59722,61.651557 c -0.16587,0.49732 -0.58019,1.07737 -1.24297,1.74015 -0.49732,0.16587 -1.07737,1.4e-4 -1.74015,-0.49719 0.66278,-2.15433 1.65715,-2.56865 2.98312,-1.24296 m 46.23828,49.967183 -0.49718,0.49719 c -0.49737,-0.16564 -0.82883,-0.4971 -0.99438,-0.99438 -0.33164,-0.66282 -0.24877,-1.16 0.2486,-1.49155 1.15991,0.33155 1.57423,0.99446 1.24296,1.98874 m 22.87055,27.59382 h -1.24296 c 0.33125,-0.3314 0.74557,-0.49713 1.24296,-0.49719 v 0.49719 M 141.0944,71.843867 c -0.82878,0.66304 -1.40883,0.91164 -1.74015,0.74578 0.16559,-0.33133 0.16559,-0.99424 0,-1.98875 0.16559,1.4e-4 0.74564,0.41446 1.74015,1.24297 m 60.15949,60.656683 c -0.33165,0.33152 -0.66311,0.49725 -0.99437,0.49718 -0.16593,-0.16566 -0.24879,-0.49711 -0.24859,-0.99437 -2e-4,-0.33139 0.0827,-0.57998 0.24859,-0.74578 0.66272,0.82872 0.99417,1.24304 0.99437,1.24297 m -9.69512,-10.6895 c -1.9e-4,0.16581 -0.16592,0.49727 -0.49719,0.99437 -0.33164,8e-5 -0.74597,-0.16565 -1.24296,-0.49718 0.82845,-0.82857 1.4085,-0.99429 1.74015,-0.49719 m -44.49814,-41.017843 -1.24296,1.24297 c -0.99452,-0.82852 -1.16025,-1.40857 -0.49719,-1.74015 0.49704,-0.16561 1.07709,1.2e-4 1.74015,0.49718 m 30.07975,34.803023 c -1.8e-4,0.16581 -0.16591,0.4144 -0.49719,0.74578 h -0.74578 c -0.33163,-0.4971 -0.24876,-0.82856 0.2486,-0.99438 0.33128,-0.33137 0.66274,-0.2485 0.99437,0.2486 m -14.1698,-10.6895 c -1.6e-4,1e-4 -0.24875,0.41442 -0.74578,1.24296 -0.49734,0.16583 -1.07739,10e-5 -1.74015,-0.49718 0.3313,-0.49709 1.15994,-0.74568 2.48593,-0.74578 m 23.86492,25.85367 c -1.8e-4,7e-5 -0.33164,0.41439 -0.99437,1.24296 -0.33164,7e-5 -0.74596,-0.16566 -1.24296,-0.49719 0.497,-0.66284 1.24278,-0.91143 2.23733,-0.74577 m -10.93809,-6.46342 c -0.1659,0.33153 -0.66309,0.49726 -1.49155,0.49719 l -0.2486,-0.49719 c 0.16556,-0.16565 0.41415,-0.24851 0.74578,-0.24859 0.49701,8e-5 0.82847,0.0829 0.99437,0.24859 m -14.41839,-12.92683 c -1.6e-4,0.16582 -0.16589,0.41441 -0.49718,0.74578 -0.49735,0.16581 -1.0774,9e-5 -1.74015,-0.49719 0.82848,-1.16001 1.57426,-1.24287 2.23733,-0.24859 m 6.71201,10.4409 c -1.6e-4,0.16581 -0.16589,0.49727 -0.49718,0.99437 -0.49736,8e-5 -1.07741,-0.16565 -1.74015,-0.49718 0.82847,-1.16002 1.57425,-1.32575 2.23733,-0.49719 m 51.70733,-48.227033 c -2.15468,-1.98861 -3.9777,-2.98298 -5.46904,-2.98312 -0.99458,1.4e-4 -1.74036,0.41446 -2.23734,1.24297 -2.1e-4,1.3e-4 -0.66312,-0.1656 -1.98874,-0.49719 -2.1e-4,0.33159 -0.16594,0.66305 -0.49719,0.99437 l 0.74578,0.74578 c 0.66271,1.65742 0.57984,3.89475 -0.24859,6.71201 l 2.48593,0.49719 c 0.49697,-0.49706 1.24275,-0.57993 2.23733,-0.24859 1.15989,0.33158 1.98853,0.16585 2.48593,-0.49719 1.32562,-1.3257 2.15426,-3.31445 2.48593,-5.96623"
         style="font-style:normal;font-weight:normal;font-size:248.59294128px;line-height:125%;font-family:'Bitstream Vera Sans';fill:#000000;fill-opacity:1;stroke:none;stroke-width:1.32895052px;stroke-linecap:butt;stroke-linejoin:miter;stroke-opacity:1"
         inkscape:connector-curvature="0" />
    </g>
    <text
       xml:space="preserve"
       style="font-style:normal;font-variant:normal;font-weight:bold;font-stretch:normal;font-size:12.69999981px;line-height:1.25;font-family:'Noto Serif Display';-inkscape-font-specification:'Noto Serif Display, Bold';font-variant-ligatures:normal;font-variant-caps:normal;font-variant-numeric:normal;font-feature-settings:normal;text-align:start;letter-spacing:0px;word-spacing:0px;writing-mode:lr-tb;text-anchor:start;fill:#cd0000;fill-opacity:1;stroke:none;stroke-width:0.26458332;"
       x="12.473214"
       y="241.81546"
       id="text875"><tspan
         sodipodi:role="line"
         id="tspan873"
         x="12.473214"
         y="241.81546"
         style="font-style:normal;font-variant:normal;font-weight:bold;font-stretch:normal;font-size:12.69999981px;font-family:'Noto Serif Display';-inkscape-font-specification:'Noto Serif Display, Bold';font-variant-ligatures:normal;font-variant-caps:normal;font-variant-numeric:normal;font-feature-settings:normal;text-align:start;writing-mode:lr-tb;text-anchor:start;stroke-width:0.26458332;fill:#cd0000;fill-opacity:1;">GAME OVER</tspan></text>
  </g>
</svg>
